<svg xmlns="http://www.w3.org/2000/svg" width="158.688" height="125.715"><path d="M95.044 56.565a3.767 3.767 0 002.948-3.553v-8a3.768 3.768 0 00-2.948-3.553l-6.42-1.2a5.637 5.637 0 01-3.894-3.4l-1.858-4.536a5.636 5.636 0 01.35-5.158l3.683-5.382a3.767 3.767 0 00-.427-4.6l-5.658-5.657a3.766 3.766 0 00-4.6-.427l-5.313 3.635a5.584 5.584 0 01-5.149.333l-4.645-1.935a5.66 5.66 0 01-3.4-3.9l-1.174-6.266A3.767 3.767 0 0052.986.017h-8a3.767 3.767 0 00-3.553 2.949l-1.168 6.225a5.625 5.625 0 01-3.4 3.893l-4.719 1.945a5.608 5.608 0 01-5.153-.342l-5.239-3.584a3.766 3.766 0 00-4.6.428l-5.657 5.657a3.767 3.767 0 00-.427 4.6l3.591 5.249a5.615 5.615 0 01.343 5.155l-1.934 4.7a5.635 5.635 0 01-3.894 3.4L2.93 41.463a3.767 3.767 0 00-2.948 3.553v8a3.767 3.767 0 002.948 3.553l6.246 1.171a5.635 5.635 0 013.894 3.4l1.935 4.7a5.615 5.615 0 01-.343 5.155l-3.591 5.248a3.774 3.774 0 00.427 4.6l5.658 5.65a3.763 3.763 0 004.6.43l5.238-3.58a5.6 5.6 0 015.153-.34l4.718 1.94a5.626 5.626 0 013.4 3.89l1.168 6.23a3.77 3.77 0 003.553 2.95h8a3.77 3.77 0 003.553-2.95l1.174-6.27a5.642 5.642 0 013.4-3.9l4.644-1.94a5.587 5.587 0 015.149.33l5.314 3.64a3.765 3.765 0 004.6-.43l5.658-5.65a3.772 3.772 0 00.427-4.6l-3.683-5.383a5.634 5.634 0 01-.35-5.157l1.858-4.535a5.633 5.633 0 013.894-3.4zm-46.135 5.419a12.972 12.972 0 1112.935-12.972 12.956 12.956 0 01-12.936 12.972zm99.895 32.481a6.29 6.29 0 013.12-4.27l4.737-2.27a3.762 3.762 0 001.929-4.19l-1.881-7.023a3.767 3.767 0 00-3.768-2.669l-5.852.449a6.078 6.078 0 01-4.7-1.935l-1-1a21.867 21.867 0 00-2.821-2.438 5.734 5.734 0 01-2.253-4.675l.309-4.038a3.766 3.766 0 00-2.668-3.768l-7.02-1.881a3.768 3.768 0 00-4.2 1.929l-2.161 4.507a6.932 6.932 0 01-4.232 3.335l-3.944 1.27a6.12 6.12 0 01-5.236-.52l-3.513-2.403a3.766 3.766 0 00-4.6.428l-5.138 5.138a3.767 3.767 0 00-.427 4.6l2.835 4.144a6.792 6.792 0 01.736 5.314l-.753 3.04a6.409 6.409 0 01-3.166 4.26l-4.163 1.99a3.78 3.78 0 00-1.928 4.2l1.88 7.02a3.779 3.779 0 003.768 2.67l4.49-.35a6.039 6.039 0 014.765 2.19 19.97 19.97 0 001.673 1.81 20.231 20.231 0 001.541 1.46 6.091 6.091 0 012.176 4.78l-.338 4.42a3.755 3.755 0 002.668 3.76l7.02 1.88a3.759 3.759 0 004.194-1.93l1.854-3.86a6.333 6.333 0 014.265-3.15l4.173-1.07a6.659 6.659 0 015.3.68l5.107 3.5a3.763 3.763 0 004.6-.43l5.139-5.14a3.756 3.756 0 00.427-4.59l-3.46-5.06a6.631 6.631 0 01-.684-5.3zm-20.367 1.9a8.382 8.382 0 11-.013-11.84 8.369 8.369 0 01.012 11.84z" fill="#487fbc" fill-rule="evenodd"/></svg>