<svg xmlns="http://www.w3.org/2000/svg" width="16.969" height="14"><path d="M16.984 1.66a6.733 6.733 0 01-2 .55A3.551 3.551 0 0016.515.26a6.818 6.818 0 01-2.211.85 3.477 3.477 0 00-6.023 2.42 3.649 3.649 0 00.09.81A9.843 9.843 0 011.196.64a3.584 3.584 0 00-.472 1.78 3.534 3.534 0 001.549 2.94 3.271 3.271 0 01-1.577-.44v.05a3.516 3.516 0 002.792 3.46 3.466 3.466 0 01-.917.13 2.852 2.852 0 01-.655-.07 3.492 3.492 0 003.252 2.46 6.9 6.9 0 01-4.323 1.51 5.7 5.7 0 01-.83-.05A9.686 9.686 0 005.351 14a9.922 9.922 0 009.9-10.06c0-.15 0-.3-.01-.45a7.318 7.318 0 001.743-1.83z" fill="#fff" fill-rule="evenodd"/></svg>